<?xml version="1.0" standalone="no"?>
<!DOCTYPE svg PUBLIC "-//W3C//DTD SVG 20010904//EN"
 "http://www.w3.org/TR/2001/REC-SVG-20010904/DTD/svg10.dtd">
<svg version="1.0" xmlns="http://www.w3.org/2000/svg"
 width="300.000000pt" height="97.000000pt" viewBox="0 0 300.000000 97.000000"
 preserveAspectRatio="xMidYMid meet">
<metadata>
Created by potrace 1.10, written by Peter Selinger 2001-2011
</metadata>
<g transform="translate(0.000000,97.000000) scale(0.100000,-0.100000)"
fill="#000000" stroke="none">
<path d="M328 827 l-46 -21 3 -61 c3 -76 34 -151 70 -167 22 -10 30 -8 53 9
15 11 31 33 37 49 5 16 13 31 17 34 13 10 12 124 0 128 -7 2 -19 10 -26 18
-31 30 -61 33 -108 11z m114 -82 c10 -57 1 -98 -20 -89 -26 12 -83 8 -92 -6
-12 -19 -21 17 -18 74 2 54 11 61 80 61 42 0 43 -1 50 -40z m-35 -103 c16 -10
-11 -52 -32 -52 -17 0 -38 36 -30 50 7 12 45 13 62 2z"/>
<path d="M329 722 c11 -8 11 -10 0 -15 -8 -3 -1 -6 14 -6 35 -1 32 23 -4 27
-17 2 -20 0 -10 -6z"/>
<path d="M390 715 c0 -11 7 -15 23 -13 12 2 22 8 22 13 0 6 -10 11 -22 13 -16
2 -23 -2 -23 -13z"/>
<path d="M700 609 c0 -5 7 -9 15 -9 12 0 15 -20 15 -119 0 -105 -2 -120 -17
-124 -10 -3 7 -5 37 -5 30 0 47 2 38 5 -15 4 -18 16 -18 64 l0 59 65 0 65 0 0
-59 c0 -48 -3 -60 -17 -64 -10 -3 7 -5 37 -5 30 0 47 2 38 5 -16 4 -18 19 -18
124 0 99 3 119 15 119 8 0 15 4 15 9 0 5 -22 9 -50 9 -27 0 -50 -4 -50 -9 0
-5 7 -9 15 -9 11 0 15 -12 15 -52 l0 -53 -65 0 -65 0 0 53 c0 40 4 52 15 52 8
0 15 4 15 9 0 5 -22 9 -50 9 -27 0 -50 -4 -50 -9z"/>
<path d="M1345 610 c-3 -5 1 -10 9 -10 14 0 16 -18 16 -120 l0 -120 -30 0 -30
0 0 68 c0 84 -14 106 -64 106 -43 0 -72 -24 -62 -51 7 -16 9 -15 28 10 25 34
46 35 58 1 15 -38 13 -41 -28 -48 -49 -7 -77 -36 -68 -70 8 -33 48 -44 81 -22
18 12 25 13 25 4 0 -10 20 -13 76 -11 42 1 78 4 82 7 3 3 -2 6 -11 6 -15 0
-17 15 -17 130 l0 130 -29 0 c-17 0 -33 -4 -36 -10z m-65 -200 c0 -19 -35 -50
-56 -50 -36 0 -19 66 18 72 30 5 38 1 38 -22z"/>
<path d="M1570 610 c0 -5 7 -10 15 -10 13 0 15 -20 15 -120 0 -107 -2 -120
-17 -122 -10 0 2 -4 27 -7 51 -7 63 -4 37 10 -25 15 -24 109 2 133 11 10 28
16 38 14 15 -3 18 -15 21 -76 3 -63 1 -72 -15 -74 -10 0 2 -4 27 -7 51 -7 63
-4 37 10 -13 8 -17 24 -17 77 0 40 -5 73 -12 80 -17 17 -58 15 -81 -5 -19 -18
-19 -17 -16 45 l4 62 -32 0 c-18 0 -33 -4 -33 -10z"/>
<path d="M1790 610 c0 -5 7 -10 15 -10 13 0 15 -20 15 -120 0 -107 -2 -120
-17 -121 -10 -1 5 -5 32 -10 70 -13 121 -3 145 28 11 14 20 33 20 43 0 24 -38
70 -58 71 -13 0 -11 3 6 11 42 21 43 84 2 105 -30 15 -160 17 -160 3z m144
-31 c24 -35 -4 -79 -51 -79 -21 0 -23 4 -23 50 0 49 1 50 29 50 19 0 35 -8 45
-21z m11 -122 c8 -12 15 -29 15 -39 0 -28 -37 -58 -70 -58 l-30 0 0 63 0 63
35 -4 c21 -3 41 -13 50 -25z"/>
<path d="M2190 600 c0 -16 5 -21 23 -18 12 2 22 10 22 18 0 8 -10 16 -22 18
-18 3 -23 -2 -23 -18z"/>
<path d="M2390 610 c0 -5 7 -10 15 -10 11 0 15 -11 15 -38 0 -37 0 -38 -38
-34 -55 5 -83 -21 -89 -84 -4 -40 -1 -54 17 -76 24 -31 56 -36 85 -14 15 11
21 11 30 1 6 -8 19 -9 35 -5 16 5 19 8 8 9 -16 1 -18 14 -18 131 l0 130 -30 0
c-16 0 -30 -4 -30 -10z m25 -165 c0 -55 -2 -60 -28 -75 -27 -14 -29 -14 -49
10 -15 19 -19 34 -15 63 7 51 24 69 61 65 31 -3 31 -3 31 -63z"/>
<path d="M313 575 c-6 -18 3 -84 13 -94 4 -3 9 0 11 7 11 29 21 8 20 -40 0
-29 2 -66 6 -83 3 -16 6 -33 6 -37 1 -5 12 -8 25 -8 13 0 36 -10 52 -22 16
-12 23 -15 17 -8 -7 8 -13 18 -13 22 0 15 53 8 74 -10 20 -16 20 -16 7 1 -12
15 -9 21 11 18 5 0 7 2 6 7 0 4 2 15 7 25 9 21 8 22 -25 32 -25 8 -25 7 -7
-13 14 -15 15 -22 6 -28 -7 -4 -18 1 -26 11 -7 11 -13 14 -13 7 0 -6 -10 -18
-22 -26 -28 -18 -82 -10 -74 11 3 8 1 11 -4 8 -13 -8 -13 -5 5 45 11 30 12 47
4 61 -13 25 -2 44 16 29 17 -14 40 40 31 76 -10 38 -20 21 -17 -28 2 -41 1
-41 -17 -25 -23 21 -46 22 -62 2 -19 -23 -29 -8 -24 35 5 40 -2 53 -13 25z"/>
<path d="M460 570 c0 -3 7 -23 15 -45 19 -54 18 -61 -6 -84 -24 -22 -22 -54 5
-59 24 -5 40 12 31 35 -3 10 -7 41 -8 70 -1 35 -8 58 -19 70 -10 9 -18 15 -18
13z"/>
<path d="M1490 560 c0 -5 -9 -19 -20 -30 -17 -17 -18 -21 -5 -26 11 -5 15 -22
15 -74 0 -76 13 -96 55 -86 31 8 33 27 3 23 -22 -2 -23 2 -26 66 -3 61 -1 67
17 67 11 0 23 5 26 10 4 6 -5 10 -19 10 -21 0 -26 5 -26 25 0 14 -4 25 -10 25
-5 0 -10 -4 -10 -10z"/>
<path d="M2632 558 c-7 -7 -12 -18 -12 -25 0 -9 -7 -10 -22 -4 -34 12 -71 -1
-88 -32 -14 -25 -13 -30 3 -58 13 -24 15 -35 6 -45 -18 -22 7 -44 51 -44 71 0
80 -61 11 -68 -38 -4 -64 14 -58 40 7 24 -10 23 -23 -2 -16 -30 19 -60 70 -60
46 0 90 34 90 69 0 28 -37 51 -82 51 -27 0 -38 4 -38 15 0 10 10 15 28 15 15
0 38 7 51 16 20 15 23 22 17 59 -4 33 -2 44 9 49 8 3 15 12 15 21 0 18 -12 19
-28 3z m-34 -50 c20 -20 15 -66 -9 -78 -42 -23 -78 40 -43 74 19 19 36 20 52
4z"/>
<path d="M276 538 c-9 -12 -16 -32 -16 -44 0 -12 -7 -27 -16 -34 -8 -7 -14
-23 -13 -34 0 -12 1 -44 0 -72 l-1 -52 -32 3 c-18 1 -24 0 -14 -2 16 -4 17 -7
5 -14 -11 -7 -11 -9 -1 -9 7 0 10 -6 7 -12 -4 -7 0 -5 8 5 8 9 19 17 26 17 26
0 99 -43 104 -61 4 -13 14 -19 34 -19 22 0 25 -2 13 -10 -11 -7 -5 -8 19 -4
29 6 33 4 29 -12 -3 -17 -13 -19 -73 -19 -116 1 -184 14 -196 37 -12 23 -16
107 -6 153 3 17 6 34 6 38 1 5 6 5 12 1 8 -4 7 -9 -2 -15 -8 -5 -9 -9 -3 -9
20 0 24 13 9 30 -24 26 1 89 42 107 18 7 33 15 33 18 0 3 -15 -1 -32 -8 -43
-17 -64 -61 -79 -167 -10 -71 -10 -93 2 -130 12 -38 18 -46 43 -48 25 -3 28
-7 23 -31 -6 -28 -6 -28 51 -28 38 0 44 1 20 4 -21 2 -38 9 -38 14 0 6 -4 7
-10 4 -5 -3 -10 -1 -10 4 0 7 27 11 70 11 66 0 70 -1 71 -22 l0 -23 10 23 c6
17 14 22 28 17 13 -4 24 1 34 15 20 28 94 26 103 -3 8 -26 -4 -35 -56 -40 -35
-3 -31 -4 18 -4 l62 0 -6 33 c-5 27 -2 38 15 51 33 29 53 125 42 210 -5 39
-12 77 -16 83 -9 14 -75 43 -82 37 -2 -3 11 -10 30 -16 52 -17 60 -45 57 -190
-1 -24 -9 -60 -18 -80 -17 -35 -19 -36 -67 -35 -28 0 -77 4 -110 8 l-60 8 3
54 c4 53 3 54 -25 55 -36 1 -57 10 -62 29 -11 38 -12 88 -2 94 13 9 31 -34 31
-75 0 -16 4 -29 9 -29 6 0 7 16 4 37 -5 29 -3 35 8 28 8 -5 1 8 -15 29 -28 37
-28 39 -13 77 17 44 15 49 -7 17z m13 -214 c37 -8 45 -44 10 -44 -29 0 -59 18
-59 35 0 17 5 18 49 9z"/>
<path d="M1043 525 c-66 -28 -67 -148 -2 -175 34 -15 79 -5 87 18 3 11 0 12
-16 3 -46 -25 -82 -3 -82 48 0 19 6 21 55 21 51 0 55 2 55 23 0 29 -24 63 -48
69 -11 3 -33 0 -49 -7z m57 -31 c14 -35 15 -34 -30 -34 -44 0 -47 5 -24 38 20
29 42 28 54 -4z"/>
<path d="M2744 532 c-39 -6 -59 -39 -59 -99 0 -45 4 -58 24 -74 13 -10 34 -19
48 -19 29 0 63 17 63 31 0 6 -7 6 -19 -1 -44 -23 -73 -9 -85 43 l-6 27 60 0
c65 0 67 3 46 54 -14 34 -34 44 -72 38z m34 -24 c7 -7 12 -20 12 -30 0 -14 -8
-18 -35 -18 -39 0 -46 17 -19 44 19 19 26 20 42 4z"/>
<path d="M2030 520 c0 -5 7 -10 16 -10 14 0 15 -7 10 -37 -3 -21 -6 -55 -6
-75 0 -27 -5 -38 -17 -41 -10 -2 6 -5 35 -8 30 -2 56 -1 59 4 2 4 -5 7 -16 7
-19 0 -21 6 -21 58 0 63 11 82 47 82 14 0 23 6 23 15 0 20 -29 19 -52 -2 -17
-15 -18 -15 -18 0 0 12 -9 17 -30 17 -16 0 -30 -4 -30 -10z"/>
<path d="M2180 520 c0 -5 5 -10 10 -10 6 0 10 -31 10 -74 0 -63 -3 -75 -17
-78 -10 -3 4 -6 30 -9 27 -2 51 -1 53 3 3 5 -2 8 -10 8 -13 0 -16 15 -16 85
l0 85 -30 0 c-16 0 -30 -4 -30 -10z"/>
<path d="M2380 215 c0 -78 2 -85 20 -85 18 0 20 7 20 85 0 78 -2 85 -20 85
-18 0 -20 -7 -20 -85z"/>
<path d="M1910 205 c0 -60 3 -75 15 -75 10 0 15 10 15 30 0 27 3 30 30 30 23
0 33 6 39 23 16 44 -5 67 -61 67 l-38 0 0 -75z m68 28 c-5 -26 -38 -29 -38 -4
0 15 6 21 21 21 14 0 19 -5 17 -17z"/>
<path d="M2052 232 c-32 -5 -21 -28 11 -24 15 2 27 -1 27 -7 0 -6 -14 -11 -30
-11 -34 0 -49 -22 -31 -44 6 -7 29 -13 52 -13 l40 0 -3 45 c-3 48 -20 62 -66
54z"/>
<path d="M2140 180 c0 -44 3 -51 18 -48 12 2 17 13 17 38 0 25 5 36 18 38 14
3 17 -4 17 -37 0 -30 4 -41 16 -41 12 0 14 10 12 48 l-3 47 -47 3 -48 3 0 -51z"/>
<path d="M2272 218 c-19 -19 -14 -55 10 -72 28 -20 52 -20 68 -1 14 16 7 19
-37 15 -13 -1 -23 3 -23 9 0 6 16 11 35 11 22 0 35 5 35 13 0 21 -22 37 -50
37 -14 0 -31 -5 -38 -12z"/>
</g>
</svg>
