<?xml version="1.0" standalone="no"?>
<!DOCTYPE svg PUBLIC "-//W3C//DTD SVG 20010904//EN"
 "http://www.w3.org/TR/2001/REC-SVG-20010904/DTD/svg10.dtd">
<svg version="1.0" xmlns="http://www.w3.org/2000/svg"
 width="300.000000pt" height="93.000000pt" viewBox="0 0 300.000000 93.000000"
 preserveAspectRatio="xMidYMid meet">
<metadata>
Created by potrace 1.10, written by Peter Selinger 2001-2011
</metadata>
<g transform="translate(0.000000,93.000000) scale(0.100000,-0.100000)"
fill="#000000" stroke="none">
<path d="M247 840 c-14 -11 -30 -20 -36 -20 -7 0 -10 -28 -10 -75 1 -41 4 -75
8 -75 11 0 33 -84 26 -102 -4 -9 -15 -18 -25 -21 -12 -3 -23 -21 -31 -48 -7
-24 -18 -53 -25 -64 -14 -24 -18 -97 -4 -75 15 24 12 -10 -5 -59 -14 -42 -14
-42 13 -52 61 -23 90 -41 95 -59 3 -11 16 -20 33 -22 l29 -4 -25 -12 -25 -13
25 7 c14 3 35 8 48 11 22 5 27 -3 16 -31 -5 -14 -19 -15 -88 -11 -98 7 -195
25 -202 37 -3 5 -9 35 -14 66 -8 64 12 158 32 146 7 -4 8 -3 4 5 -4 6 -12 8
-18 5 -10 -7 -7 9 15 73 8 24 20 36 44 44 18 6 35 15 38 20 6 9 -30 -3 -65
-21 -35 -19 -75 -206 -60 -280 13 -69 20 -81 52 -87 26 -5 29 -9 25 -33 -5
-24 -3 -27 26 -27 29 0 30 1 9 10 -25 12 -24 32 1 31 10 0 41 -1 71 -2 48 -2
55 -5 59 -24 4 -23 4 -23 6 1 1 20 5 23 32 19 25 -4 33 0 42 19 16 36 101 29
113 -9 8 -27 1 -32 -59 -39 -51 -7 -51 -7 14 -6 l67 1 -6 39 c-4 31 -1 41 16
53 48 34 69 204 37 305 -7 21 -79 63 -97 57 -6 -2 9 -12 35 -22 48 -18 56 -32
62 -115 1 -20 3 -40 5 -46 1 -5 2 -12 1 -15 -1 -3 -4 -21 -6 -41 -2 -19 -11
-54 -20 -76 -20 -49 -47 -57 -139 -37 -33 7 -73 13 -88 14 -27 0 -28 1 -28 60
0 47 -3 60 -15 60 -9 0 -15 -9 -15 -23 0 -33 -6 -36 -51 -24 -29 7 -39 14 -37
26 3 12 13 15 43 14 22 -2 34 0 28 3 -7 3 -13 12 -13 20 0 9 5 12 12 8 8 -5 9
-2 5 10 -4 10 -10 30 -13 44 l-7 27 29 -25 29 -25 -21 25 c-29 33 -46 67 -36
73 4 2 1 2 -5 1 -16 -4 -17 27 -2 60 13 27 29 26 29 -2 1 -9 7 -30 15 -47 10
-20 14 -23 12 -10 -1 12 4 20 13 20 10 0 13 -7 10 -20 -6 -27 -4 -71 5 -122 7
-37 11 -43 33 -43 14 0 40 -12 56 -27 17 -16 23 -18 13 -7 -16 20 -16 22 -2
28 30 11 64 6 75 -12 11 -16 11 -16 6 0 -4 12 0 18 12 18 13 0 14 2 4 9 -11 7
-11 9 2 14 17 7 22 37 6 37 -5 0 -13 -8 -18 -17 -6 -9 -18 -18 -28 -19 -16 -2
-15 0 5 17 19 16 22 22 12 32 -7 7 -11 7 -9 2 4 -13 -61 -75 -78 -75 -8 0 -14
4 -14 9 0 4 -12 6 -27 3 -26 -5 -26 -4 -18 34 5 21 8 63 8 92 -1 36 2 52 10
49 7 -2 11 -13 9 -23 -1 -10 7 -3 17 16 22 38 26 77 11 100 -8 12 -10 8 -11
-15 -1 -16 0 -41 1 -55 l2 -25 -24 23 c-30 27 -54 28 -68 2 -16 -30 -29 -15
-25 28 1 20 3 43 4 51 1 11 5 10 21 -4 17 -15 24 -16 49 -5 34 13 61 49 61 79
0 11 4 21 9 23 5 2 10 32 12 67 3 54 1 65 -15 75 -11 6 -28 19 -38 29 -24 23
-69 22 -101 -3z m111 -54 c16 -10 24 -90 12 -122 -9 -21 -13 -25 -20 -14 -11
17 -92 19 -98 2 -10 -30 -22 5 -22 63 0 47 4 66 15 72 17 10 97 9 113 -1z
m-18 -159 c0 -8 -9 -22 -21 -33 -21 -19 -21 -18 -40 5 -28 34 -24 41 21 41 27
0 40 -4 40 -13z m-139 -243 c6 -52 3 -74 -13 -74 -5 0 -6 5 -2 12 5 7 2 9 -7
6 -11 -4 -15 6 -16 41 -2 25 -1 52 2 59 10 28 30 4 36 -44z"/>
<path d="M250 720 c12 -8 12 -10 1 -10 -8 0 -12 -3 -8 -6 8 -8 47 5 47 17 0 5
-12 9 -27 9 -22 0 -25 -2 -13 -10z"/>
<path d="M310 721 c0 -5 11 -11 25 -13 13 -3 22 -2 20 3 -3 4 1 10 7 12 7 3
-2 6 -19 6 -18 1 -33 -3 -33 -8z"/>
<path d="M1375 610 c-29 -7 -29 -8 -7 -15 21 -7 22 -12 22 -130 0 -117 -1
-122 -22 -133 -20 -9 -15 -11 32 -11 48 0 53 1 38 13 -16 11 -18 31 -18 150 0
75 -3 135 -7 135 -5 -1 -21 -5 -38 -9z"/>
<path d="M1628 613 c-29 -4 -39 -23 -13 -23 13 0 15 -20 15 -121 0 -104 -3
-124 -17 -135 -16 -12 -11 -13 35 -14 33 0 51 4 47 10 -3 6 -12 10 -18 10 -8
0 -11 20 -9 65 3 56 7 68 28 81 42 28 54 13 54 -67 0 -57 -4 -75 -17 -85 -16
-12 -11 -13 35 -14 33 0 51 4 47 10 -3 6 -12 10 -19 10 -11 0 -12 15 -9 65 5
50 2 70 -11 90 -19 28 -52 33 -82 10 -10 -8 -21 -15 -24 -15 -3 0 -4 29 -2 65
2 36 0 64 -4 64 -5 -1 -21 -4 -36 -6z"/>
<path d="M1885 610 c-27 -4 -42 -8 -32 -8 15 -2 17 -15 17 -128 0 -106 -3
-129 -16 -139 -14 -10 -6 -13 46 -18 73 -8 107 -2 138 26 37 34 20 127 -24
127 -19 0 -18 5 11 34 31 31 31 48 3 80 -26 28 -70 36 -143 26z m90 -16 c9 -4
21 -18 26 -32 14 -36 -10 -69 -55 -74 l-36 -4 0 58 c0 55 1 58 24 58 13 0 32
-3 41 -6z m28 -155 c38 -46 14 -97 -51 -106 l-42 -6 0 73 0 73 38 -6 c20 -4
45 -16 55 -28z"/>
<path d="M2283 613 c-7 -3 -13 -14 -13 -25 0 -14 6 -19 22 -16 13 2 24 10 26
19 3 18 -15 29 -35 22z"/>
<path d="M2513 613 c-26 -5 -31 -23 -8 -23 11 0 15 -11 15 -39 l0 -39 -38 5
c-57 8 -93 -27 -99 -93 -7 -85 42 -135 104 -104 15 8 32 16 36 18 4 2 6 -2 5
-9 -2 -10 6 -13 27 -10 39 4 45 10 16 18 -23 6 -23 7 -19 144 2 89 -1 139 -7
138 -5 -1 -20 -4 -32 -6z m-5 -122 c9 -5 12 -27 10 -72 -3 -59 -5 -65 -31 -77
-43 -21 -67 5 -67 71 0 71 41 108 88 78z"/>
<path d="M660 600 c0 -5 7 -10 15 -10 13 0 15 -20 15 -123 0 -119 -1 -124 -22
-135 -19 -9 -13 -11 37 -10 33 0 52 2 43 5 -15 4 -18 16 -18 69 l0 64 70 0 70
0 0 -56 c0 -42 -4 -60 -17 -70 -16 -12 -11 -13 37 -13 30 1 47 3 38 6 -16 4
-18 19 -18 134 0 106 3 129 14 129 8 0 18 5 21 10 4 6 -16 10 -52 10 -50 -1
-56 -2 -40 -14 12 -10 17 -27 17 -65 l0 -51 -70 0 -70 0 0 51 c0 38 5 55 18
65 15 12 10 13 -35 14 -29 0 -53 -4 -53 -10z"/>
<path d="M390 555 c1 -6 7 -21 15 -35 15 -27 19 -79 7 -95 -4 -5 -16 -15 -26
-21 -11 -5 -30 -26 -44 -45 l-24 -34 27 32 27 33 18 -22 c10 -13 23 -19 32
-15 13 4 15 21 13 87 -2 68 -7 86 -24 103 -12 12 -21 17 -21 12z"/>
<path d="M1510 545 c0 -8 -9 -20 -20 -27 -24 -15 -26 -28 -5 -28 11 0 15 -18
17 -81 3 -95 16 -113 65 -89 l28 13 -30 6 c-30 6 -30 7 -33 79 -3 71 -3 72 23
72 14 0 25 5 25 11 0 7 -10 9 -25 7 -22 -5 -25 -2 -25 23 0 16 -4 29 -10 29
-5 0 -10 -7 -10 -15z"/>
<path d="M2752 548 c-7 -7 -12 -17 -12 -24 0 -8 -13 -10 -40 -7 -70 10 -112
-51 -75 -105 12 -17 13 -26 5 -42 -17 -31 4 -50 55 -50 71 0 91 -55 27 -74
-47 -13 -86 6 -79 39 5 28 -5 32 -23 10 -26 -31 17 -75 76 -75 32 0 80 25 88
45 21 55 -7 85 -75 85 -42 0 -50 3 -47 17 2 12 14 18 37 20 53 5 74 29 68 80
-4 35 -1 45 16 56 12 8 17 18 13 25 -9 15 -19 15 -34 0z m-38 -54 c30 -30 10
-94 -29 -94 -16 0 -45 38 -45 57 0 15 36 53 49 53 5 0 17 -7 25 -16z"/>
<path d="M1003 496 c-25 -21 -28 -31 -28 -81 0 -50 3 -60 28 -81 15 -13 41
-24 56 -24 31 0 70 24 58 36 -4 4 -13 2 -19 -4 -32 -32 -88 4 -88 55 0 21 4
23 60 23 54 0 60 2 60 21 0 23 -18 60 -34 71 -22 15 -66 7 -93 -16z m75 2 c7
-7 12 -22 12 -35 0 -20 -5 -23 -40 -23 -44 0 -45 1 -29 33 20 36 38 44 57 25z"/>
<path d="M1192 504 c-27 -19 -29 -44 -2 -44 11 0 20 7 20 15 0 8 10 20 22 26
18 10 24 8 35 -7 26 -36 17 -59 -29 -70 -26 -6 -49 -19 -61 -36 -19 -25 -19
-28 -3 -52 19 -29 51 -34 83 -11 17 12 22 12 26 1 3 -9 15 -12 31 -9 28 6 36
23 11 23 -12 0 -15 15 -15 78 0 47 -5 83 -12 90 -17 17 -79 15 -106 -4z m88
-114 c0 -20 -8 -34 -24 -45 -30 -20 -56 -10 -56 22 0 18 9 28 33 38 45 20 47
19 47 -15z"/>
<path d="M2096 511 c-3 -5 3 -11 15 -14 19 -5 20 -11 16 -77 -4 -54 -9 -74
-23 -85 -17 -13 -13 -14 39 -15 31 0 57 4 57 10 0 6 -9 10 -20 10 -18 0 -20 7
-20 60 0 52 3 62 24 75 13 8 31 13 40 9 12 -4 16 0 16 15 0 29 -44 28 -64 -1
l-16 -22 0 22 c0 18 -6 22 -29 22 -17 0 -32 -4 -35 -9z"/>
<path d="M2260 511 c0 -5 7 -11 15 -15 21 -8 22 -156 1 -156 -8 0 -18 -4 -21
-10 -4 -6 13 -10 44 -10 28 0 51 5 51 10 0 6 -7 10 -15 10 -12 0 -15 17 -15
90 l0 90 -30 0 c-16 0 -30 -4 -30 -9z"/>
<path d="M2840 502 c-43 -35 -43 -139 1 -174 25 -21 57 -23 94 -6 28 12 35 35
8 23 -61 -26 -88 -14 -99 43 l-6 32 61 0 c60 0 61 0 61 28 0 65 -68 96 -120
54z m74 -14 c27 -38 20 -48 -29 -48 -51 0 -54 6 -24 44 25 32 33 32 53 4z"/>
</g>
</svg>
